<?xml version="1.0" encoding="UTF-8"?>
<svg xmlns="http://www.w3.org/2000/svg" version="1.1" width="300" height="300" viewBox="0 0 300 300"><rect x="0" y="0" width="300" height="300" fill="#ffffff"/><g transform="scale(10.345)"><g transform="translate(0,0)"><path fill-rule="evenodd" d="M8 0L8 1L10 1L10 0ZM15 0L15 1L14 1L14 2L11 2L11 4L10 4L10 3L9 3L9 2L8 2L8 5L9 5L9 6L8 6L8 7L9 7L9 8L8 8L8 9L7 9L7 8L6 8L6 9L4 9L4 8L0 8L0 10L2 10L2 11L3 11L3 12L4 12L4 11L5 11L5 13L4 13L4 14L6 14L6 15L7 15L7 16L6 16L6 17L7 17L7 18L5 18L5 17L3 17L3 16L2 16L2 15L3 15L3 14L2 14L2 12L1 12L1 11L0 11L0 12L1 12L1 13L0 13L0 15L1 15L1 18L0 18L0 19L1 19L1 18L5 18L5 19L2 19L2 20L1 20L1 21L3 21L3 20L4 20L4 21L5 21L5 19L7 19L7 20L6 20L6 21L8 21L8 22L9 22L9 24L10 24L10 25L11 25L11 28L9 28L9 27L10 27L10 26L9 26L9 25L8 25L8 29L11 29L11 28L12 28L12 29L13 29L13 28L12 28L12 26L13 26L13 27L14 27L14 29L16 29L16 28L17 28L17 26L18 26L18 27L20 27L20 28L18 28L18 29L22 29L22 28L21 28L21 27L22 27L22 25L23 25L23 27L24 27L24 26L25 26L25 25L26 25L26 26L27 26L27 25L28 25L28 27L27 27L27 29L28 29L28 27L29 27L29 25L28 25L28 24L29 24L29 23L28 23L28 22L29 22L29 21L27 21L27 18L28 18L28 15L29 15L29 13L27 13L27 12L26 12L26 11L28 11L28 12L29 12L29 11L28 11L28 10L29 10L29 8L28 8L28 10L26 10L26 11L25 11L25 9L27 9L27 8L24 8L24 9L22 9L22 8L21 8L21 3L20 3L20 2L21 2L21 0L20 0L20 2L18 2L18 1L19 1L19 0L18 0L18 1L17 1L17 0ZM16 1L16 3L12 3L12 5L10 5L10 6L9 6L9 7L10 7L10 8L9 8L9 9L10 9L10 10L9 10L9 11L8 11L8 12L7 12L7 11L6 11L6 10L7 10L7 9L6 9L6 10L5 10L5 11L6 11L6 12L7 12L7 13L6 13L6 14L7 14L7 15L10 15L10 16L9 16L9 17L8 17L8 16L7 16L7 17L8 17L8 21L9 21L9 20L10 20L10 23L11 23L11 25L12 25L12 24L13 24L13 26L14 26L14 27L15 27L15 28L16 28L16 26L14 26L14 24L18 24L18 26L19 26L19 25L20 25L20 24L18 24L18 23L16 23L16 22L17 22L17 21L15 21L15 17L16 17L16 15L17 15L17 17L18 17L18 19L20 19L20 20L19 20L19 22L20 22L20 20L22 20L22 18L23 18L23 16L24 16L24 15L25 15L25 17L24 17L24 18L26 18L26 17L27 17L27 15L25 15L25 14L27 14L27 13L25 13L25 11L24 11L24 10L21 10L21 11L24 11L24 12L21 12L21 13L20 13L20 10L19 10L19 14L20 14L20 15L17 15L17 12L18 12L18 11L17 11L17 10L18 10L18 9L17 9L17 10L16 10L16 12L12 12L12 14L11 14L11 15L10 15L10 14L9 14L9 12L10 12L10 13L11 13L11 11L14 11L14 10L15 10L15 9L16 9L16 8L17 8L17 7L18 7L18 8L20 8L20 6L19 6L19 7L18 7L18 6L17 6L17 5L19 5L19 3L18 3L18 2L17 2L17 1ZM16 3L16 4L18 4L18 3ZM13 4L13 5L12 5L12 7L11 7L11 6L10 6L10 7L11 7L11 8L12 8L12 7L13 7L13 9L15 9L15 5L14 5L14 4ZM13 5L13 7L14 7L14 5ZM16 6L16 7L17 7L17 6ZM2 9L2 10L4 10L4 9ZM7 13L7 14L8 14L8 13ZM13 13L13 14L12 14L12 16L10 16L10 17L9 17L9 19L10 19L10 20L11 20L11 21L12 21L12 22L11 22L11 23L14 23L14 22L15 22L15 21L14 21L14 20L13 20L13 18L14 18L14 17L12 17L12 16L14 16L14 15L15 15L15 14L14 14L14 13ZM21 13L21 14L23 14L23 15L21 15L21 16L23 16L23 15L24 15L24 14L23 14L23 13ZM13 14L13 15L14 15L14 14ZM10 17L10 18L12 18L12 17ZM20 18L20 19L21 19L21 18ZM11 19L11 20L12 20L12 19ZM23 19L23 20L24 20L24 19ZM25 19L25 20L26 20L26 19ZM21 21L21 24L24 24L24 21ZM22 22L22 23L23 23L23 22ZM26 22L26 23L25 23L25 24L27 24L27 22ZM20 26L20 27L21 27L21 26ZM25 27L25 29L26 29L26 27ZM23 28L23 29L24 29L24 28ZM0 0L0 7L7 7L7 0ZM1 1L1 6L6 6L6 1ZM2 2L2 5L5 5L5 2ZM22 0L22 7L29 7L29 0ZM23 1L23 6L28 6L28 1ZM24 2L24 5L27 5L27 2ZM0 22L0 29L7 29L7 22ZM1 23L1 28L6 28L6 23ZM2 24L2 27L5 27L5 24Z" fill="#000000"/></g></g></svg>
