<?xml version="1.0" encoding="UTF-8"?>
<svg xmlns="http://www.w3.org/2000/svg" version="1.1" width="300" height="300" viewBox="0 0 300 300"><rect x="0" y="0" width="300" height="300" fill="#ffffff"/><g transform="scale(10.345)"><g transform="translate(0,0)"><path fill-rule="evenodd" d="M8 0L8 2L9 2L9 3L10 3L10 2L9 2L9 1L11 1L11 2L12 2L12 0ZM13 0L13 1L15 1L15 2L16 2L16 0ZM18 0L18 1L17 1L17 3L15 3L15 5L13 5L13 3L14 3L14 2L13 2L13 3L11 3L11 5L9 5L9 4L8 4L8 9L7 9L7 8L5 8L5 10L4 10L4 9L3 9L3 8L0 8L0 11L1 11L1 10L2 10L2 12L0 12L0 13L1 13L1 14L0 14L0 17L1 17L1 18L0 18L0 19L3 19L3 20L0 20L0 21L5 21L5 17L8 17L8 18L6 18L6 19L8 19L8 20L6 20L6 21L8 21L8 22L9 22L9 21L10 21L10 26L8 26L8 29L9 29L9 28L10 28L10 26L11 26L11 25L12 25L12 27L11 27L11 28L13 28L13 29L15 29L15 28L16 28L16 29L17 29L17 27L18 27L18 28L19 28L19 27L20 27L20 29L21 29L21 28L22 28L22 29L25 29L25 28L26 28L26 27L29 27L29 24L28 24L28 23L29 23L29 21L28 21L28 20L27 20L27 21L26 21L26 20L25 20L25 18L28 18L28 19L29 19L29 16L28 16L28 17L26 17L26 16L25 16L25 18L24 18L24 16L23 16L23 15L22 15L22 14L24 14L24 15L26 15L26 14L28 14L28 15L29 15L29 12L28 12L28 13L26 13L26 14L24 14L24 11L23 11L23 10L24 10L24 9L25 9L25 8L19 8L19 6L18 6L18 3L19 3L19 0ZM20 1L20 7L21 7L21 1ZM11 5L11 7L10 7L10 6L9 6L9 7L10 7L10 9L9 9L9 10L11 10L11 11L12 11L12 9L11 9L11 8L13 8L13 7L14 7L14 9L13 9L13 10L15 10L15 11L16 11L16 9L15 9L15 8L17 8L17 9L18 9L18 10L17 10L17 13L16 13L16 12L15 12L15 14L13 14L13 12L14 12L14 11L13 11L13 12L11 12L11 14L9 14L9 15L8 15L8 13L9 13L9 12L10 12L10 11L8 11L8 12L7 12L7 11L6 11L6 10L7 10L7 9L6 9L6 10L5 10L5 11L6 11L6 12L5 12L5 13L4 13L4 12L2 12L2 14L3 14L3 15L2 15L2 16L1 16L1 17L2 17L2 18L3 18L3 17L2 17L2 16L4 16L4 17L5 17L5 16L9 16L9 17L10 17L10 18L11 18L11 19L9 19L9 20L10 20L10 21L11 21L11 22L12 22L12 23L11 23L11 24L13 24L13 23L14 23L14 25L13 25L13 26L15 26L15 24L16 24L16 25L17 25L17 26L18 26L18 27L19 27L19 24L20 24L20 20L18 20L18 19L19 19L19 17L18 17L18 15L19 15L19 16L20 16L20 19L21 19L21 20L22 20L22 19L24 19L24 18L22 18L22 17L21 17L21 16L22 16L22 15L21 15L21 13L22 13L22 12L23 12L23 11L22 11L22 12L20 12L20 11L19 11L19 12L18 12L18 10L20 10L20 9L19 9L19 8L18 8L18 6L17 6L17 7L16 7L16 5L15 5L15 7L14 7L14 6L13 6L13 7L12 7L12 5ZM27 8L27 10L25 10L25 11L27 11L27 10L28 10L28 11L29 11L29 8ZM2 9L2 10L3 10L3 9ZM21 9L21 10L22 10L22 9ZM6 12L6 13L7 13L7 12ZM19 12L19 15L20 15L20 12ZM3 13L3 14L4 14L4 16L5 16L5 14L4 14L4 13ZM17 13L17 14L18 14L18 13ZM6 14L6 15L7 15L7 14ZM11 14L11 15L10 15L10 17L12 17L12 19L11 19L11 20L13 20L13 22L15 22L15 23L16 23L16 24L17 24L17 23L18 23L18 24L19 24L19 23L18 23L18 21L17 21L17 19L16 19L16 17L15 17L15 18L13 18L13 17L14 17L14 15L13 15L13 16L11 16L11 15L12 15L12 14ZM15 14L15 15L16 15L16 14ZM17 17L17 18L18 18L18 17ZM13 19L13 20L14 20L14 19ZM15 20L15 21L16 21L16 23L17 23L17 21L16 21L16 20ZM21 21L21 24L24 24L24 21ZM27 21L27 22L25 22L25 23L26 23L26 24L25 24L25 27L26 27L26 26L28 26L28 25L27 25L27 23L28 23L28 21ZM22 22L22 23L23 23L23 22ZM8 23L8 24L9 24L9 23ZM20 25L20 26L21 26L21 27L22 27L22 28L24 28L24 25L22 25L22 26L21 26L21 25ZM13 27L13 28L14 28L14 27ZM28 28L28 29L29 29L29 28ZM0 0L0 7L7 7L7 0ZM1 1L1 6L6 6L6 1ZM2 2L2 5L5 5L5 2ZM22 0L22 7L29 7L29 0ZM23 1L23 6L28 6L28 1ZM24 2L24 5L27 5L27 2ZM0 22L0 29L7 29L7 22ZM1 23L1 28L6 28L6 23ZM2 24L2 27L5 27L5 24Z" fill="#000000"/></g></g></svg>
