<?xml version="1.0" encoding="UTF-8"?>
<svg xmlns="http://www.w3.org/2000/svg" version="1.1" width="300" height="300" viewBox="0 0 300 300"><rect x="0" y="0" width="300" height="300" fill="#ffffff"/><g transform="scale(10.345)"><g transform="translate(0,0)"><path fill-rule="evenodd" d="M8 0L8 2L10 2L10 4L8 4L8 10L6 10L6 11L5 11L5 10L4 10L4 9L3 9L3 8L0 8L0 10L1 10L1 9L3 9L3 11L2 11L2 12L3 12L3 11L5 11L5 12L4 12L4 13L5 13L5 14L2 14L2 13L0 13L0 14L2 14L2 16L3 16L3 20L0 20L0 21L3 21L3 20L4 20L4 19L5 19L5 20L6 20L6 21L7 21L7 20L10 20L10 19L12 19L12 18L9 18L9 19L7 19L7 18L8 18L8 17L9 17L9 16L10 16L10 17L11 17L11 16L13 16L13 18L15 18L15 20L16 20L16 21L15 21L15 22L13 22L13 21L14 21L14 19L13 19L13 20L11 20L11 21L12 21L12 23L11 23L11 22L10 22L10 21L8 21L8 22L10 22L10 24L9 24L9 23L8 23L8 24L9 24L9 25L11 25L11 24L13 24L13 26L15 26L15 28L16 28L16 29L17 29L17 27L18 27L18 28L19 28L19 27L20 27L20 29L21 29L21 28L22 28L22 29L25 29L25 28L26 28L26 27L29 27L29 21L28 21L28 20L27 20L27 21L26 21L26 20L25 20L25 18L28 18L28 19L29 19L29 16L28 16L28 17L26 17L26 16L25 16L25 18L24 18L24 16L23 16L23 15L22 15L22 14L24 14L24 15L26 15L26 14L28 14L28 15L29 15L29 12L28 12L28 13L26 13L26 14L24 14L24 11L23 11L23 10L24 10L24 9L25 9L25 8L21 8L21 6L20 6L20 9L18 9L18 10L19 10L19 11L18 11L18 12L17 12L17 11L16 11L16 10L15 10L15 8L16 8L16 9L17 9L17 6L18 6L18 7L19 7L19 6L18 6L18 5L19 5L19 3L20 3L20 2L21 2L21 1L20 1L20 2L19 2L19 0L15 0L15 1L13 1L13 0L11 0L11 1L9 1L9 0ZM11 1L11 2L12 2L12 1ZM15 1L15 2L16 2L16 1ZM17 1L17 2L18 2L18 1ZM13 2L13 3L11 3L11 4L12 4L12 6L11 6L11 5L9 5L9 8L10 8L10 6L11 6L11 7L12 7L12 6L13 6L13 8L11 8L11 10L8 10L8 11L10 11L10 13L9 13L9 12L7 12L7 11L6 11L6 12L5 12L5 13L6 13L6 14L5 14L5 15L6 15L6 16L4 16L4 15L3 15L3 16L4 16L4 18L5 18L5 19L6 19L6 20L7 20L7 19L6 19L6 18L7 18L7 17L6 17L6 16L8 16L8 14L7 14L7 13L9 13L9 14L11 14L11 15L10 15L10 16L11 16L11 15L12 15L12 13L11 13L11 12L13 12L13 11L14 11L14 13L13 13L13 14L15 14L15 12L16 12L16 15L15 15L15 16L16 16L16 19L17 19L17 21L16 21L16 23L15 23L15 24L16 24L16 25L17 25L17 26L18 26L18 27L19 27L19 24L20 24L20 20L18 20L18 19L19 19L19 17L18 17L18 15L17 15L17 14L18 14L18 13L19 13L19 14L20 14L20 15L19 15L19 16L20 16L20 17L21 17L21 18L20 18L20 19L21 19L21 20L22 20L22 19L24 19L24 18L22 18L22 17L21 17L21 16L22 16L22 15L21 15L21 14L20 14L20 13L19 13L19 12L18 12L18 13L17 13L17 12L16 12L16 11L15 11L15 10L13 10L13 8L14 8L14 6L15 6L15 7L16 7L16 6L17 6L17 3L15 3L15 4L16 4L16 6L15 6L15 5L13 5L13 4L14 4L14 2ZM5 8L5 9L7 9L7 8ZM27 8L27 10L25 10L25 11L27 11L27 10L28 10L28 11L29 11L29 8ZM21 9L21 10L20 10L20 12L21 12L21 13L22 13L22 12L23 12L23 11L22 11L22 12L21 12L21 10L22 10L22 9ZM11 10L11 11L12 11L12 10ZM0 11L0 12L1 12L1 11ZM6 12L6 13L7 13L7 12ZM6 14L6 15L7 15L7 14ZM0 15L0 16L1 16L1 15ZM13 15L13 16L14 16L14 15ZM20 15L20 16L21 16L21 15ZM5 17L5 18L6 18L6 17ZM17 17L17 18L18 18L18 17ZM0 18L0 19L2 19L2 18ZM17 21L17 23L16 23L16 24L17 24L17 23L18 23L18 24L19 24L19 23L18 23L18 21ZM21 21L21 24L24 24L24 21ZM27 21L27 22L25 22L25 23L26 23L26 24L25 24L25 27L26 27L26 26L28 26L28 25L27 25L27 24L28 24L28 21ZM22 22L22 23L23 23L23 22ZM13 23L13 24L14 24L14 23ZM20 25L20 26L21 26L21 27L22 27L22 28L24 28L24 25L22 25L22 26L21 26L21 25ZM8 26L8 29L9 29L9 28L11 28L11 29L14 29L14 27L13 27L13 28L11 28L11 27L12 27L12 26L11 26L11 27L10 27L10 26ZM28 28L28 29L29 29L29 28ZM0 0L0 7L7 7L7 0ZM1 1L1 6L6 6L6 1ZM2 2L2 5L5 5L5 2ZM22 0L22 7L29 7L29 0ZM23 1L23 6L28 6L28 1ZM24 2L24 5L27 5L27 2ZM0 22L0 29L7 29L7 22ZM1 23L1 28L6 28L6 23ZM2 24L2 27L5 27L5 24Z" fill="#000000"/></g></g></svg>
