<?xml version="1.0" encoding="UTF-8"?>
<svg xmlns="http://www.w3.org/2000/svg" version="1.1" width="300" height="300" viewBox="0 0 300 300"><rect x="0" y="0" width="300" height="300" fill="#ffffff"/><g transform="scale(10.345)"><g transform="translate(0,0)"><path fill-rule="evenodd" d="M10 0L10 2L11 2L11 0ZM12 0L12 1L13 1L13 2L12 2L12 4L13 4L13 3L14 3L14 4L15 4L15 5L17 5L17 4L18 4L18 3L17 3L17 4L16 4L16 2L19 2L19 1L20 1L20 3L19 3L19 5L18 5L18 8L19 8L19 9L18 9L18 10L16 10L16 9L12 9L12 7L13 7L13 5L11 5L11 6L10 6L10 4L11 4L11 3L8 3L8 4L9 4L9 5L8 5L8 7L9 7L9 8L6 8L6 9L10 9L10 11L11 11L11 9L12 9L12 10L13 10L13 11L12 11L12 13L13 13L13 12L14 12L14 13L17 13L17 11L18 11L18 10L19 10L19 9L20 9L20 10L21 10L21 11L22 11L22 10L23 10L23 12L25 12L25 13L22 13L22 14L21 14L21 13L20 13L20 12L19 12L19 14L21 14L21 15L20 15L20 17L19 17L19 15L18 15L18 14L15 14L15 15L14 15L14 16L15 16L15 17L12 17L12 15L13 15L13 14L8 14L8 13L7 13L7 12L8 12L8 10L5 10L5 11L3 11L3 12L2 12L2 10L4 10L4 9L5 9L5 8L0 8L0 11L1 11L1 12L2 12L2 13L0 13L0 14L1 14L1 15L2 15L2 16L1 16L1 17L0 17L0 21L1 21L1 18L2 18L2 17L3 17L3 16L4 16L4 15L3 15L3 14L4 14L4 13L5 13L5 11L7 11L7 12L6 12L6 13L7 13L7 14L5 14L5 15L7 15L7 14L8 14L8 16L6 16L6 17L7 17L7 18L3 18L3 19L2 19L2 21L5 21L5 20L6 20L6 21L8 21L8 23L9 23L9 20L11 20L11 18L9 18L9 15L10 15L10 16L11 16L11 17L12 17L12 18L13 18L13 19L12 19L12 21L13 21L13 20L14 20L14 21L15 21L15 20L14 20L14 19L16 19L16 20L17 20L17 22L15 22L15 23L14 23L14 24L15 24L15 25L12 25L12 23L13 23L13 22L11 22L11 23L10 23L10 24L8 24L8 29L9 29L9 28L10 28L10 29L11 29L11 27L9 27L9 26L10 26L10 24L11 24L11 25L12 25L12 26L13 26L13 27L12 27L12 29L13 29L13 28L14 28L14 29L15 29L15 28L14 28L14 27L16 27L16 28L17 28L17 29L18 29L18 28L17 28L17 27L16 27L16 26L17 26L17 25L18 25L18 26L20 26L20 25L27 25L27 28L26 28L26 26L22 26L22 27L25 27L25 28L24 28L24 29L27 29L27 28L28 28L28 26L29 26L29 25L28 25L28 24L29 24L29 23L27 23L27 22L29 22L29 20L28 20L28 19L27 19L27 16L28 16L28 15L27 15L27 12L28 12L28 11L27 11L27 12L25 12L25 11L24 11L24 10L25 10L25 9L26 9L26 8L25 8L25 9L24 9L24 8L23 8L23 9L22 9L22 8L21 8L21 9L20 9L20 7L21 7L21 4L20 4L20 3L21 3L21 0L17 0L17 1L16 1L16 0ZM8 1L8 2L9 2L9 1ZM14 2L14 3L15 3L15 2ZM19 5L19 7L20 7L20 5ZM9 6L9 7L10 7L10 6ZM11 6L11 7L12 7L12 6ZM14 6L14 8L15 8L15 6ZM16 6L16 8L17 8L17 6ZM10 8L10 9L11 9L11 8ZM27 8L27 9L28 9L28 10L29 10L29 9L28 9L28 8ZM14 11L14 12L15 12L15 11ZM3 12L3 13L2 13L2 14L3 14L3 13L4 13L4 12ZM9 12L9 13L11 13L11 12ZM25 13L25 16L24 16L24 15L23 15L23 16L22 16L22 17L26 17L26 16L27 16L27 15L26 15L26 13ZM28 13L28 14L29 14L29 13ZM16 15L16 16L18 16L18 15ZM15 17L15 18L17 18L17 17ZM20 17L20 18L18 18L18 19L17 19L17 20L18 20L18 21L19 21L19 22L17 22L17 24L18 24L18 25L20 25L20 23L19 23L19 22L20 22L20 21L19 21L19 19L20 19L20 18L21 18L21 19L22 19L22 18L21 18L21 17ZM28 17L28 18L29 18L29 17ZM7 18L7 19L6 19L6 20L7 20L7 19L8 19L8 20L9 20L9 19L8 19L8 18ZM3 19L3 20L4 20L4 19ZM24 19L24 20L25 20L25 21L26 21L26 20L27 20L27 19ZM21 21L21 24L24 24L24 21ZM22 22L22 23L23 23L23 22ZM26 23L26 24L27 24L27 23ZM15 25L15 26L16 26L16 25ZM20 27L20 28L19 28L19 29L20 29L20 28L21 28L21 27ZM0 0L0 7L7 7L7 0ZM1 1L1 6L6 6L6 1ZM2 2L2 5L5 5L5 2ZM22 0L22 7L29 7L29 0ZM23 1L23 6L28 6L28 1ZM24 2L24 5L27 5L27 2ZM0 22L0 29L7 29L7 22ZM1 23L1 28L6 28L6 23ZM2 24L2 27L5 27L5 24Z" fill="#000000"/></g></g></svg>
