<?xml version="1.0" encoding="UTF-8"?>
<svg xmlns="http://www.w3.org/2000/svg" version="1.1" width="300" height="300" viewBox="0 0 300 300"><rect x="0" y="0" width="300" height="300" fill="#ffffff"/><g transform="scale(10.345)"><g transform="translate(0,0)"><path fill-rule="evenodd" d="M10 0L10 1L9 1L9 2L8 2L8 3L9 3L9 5L10 5L10 7L11 7L11 8L12 8L12 9L11 9L11 10L10 10L10 9L9 9L9 6L8 6L8 8L4 8L4 9L3 9L3 8L0 8L0 9L1 9L1 10L0 10L0 11L1 11L1 12L2 12L2 14L3 14L3 12L2 12L2 11L1 11L1 10L3 10L3 11L5 11L5 9L7 9L7 10L6 10L6 11L7 11L7 12L4 12L4 14L5 14L5 16L2 16L2 17L1 17L1 18L0 18L0 19L1 19L1 20L0 20L0 21L1 21L1 20L2 20L2 21L3 21L3 20L6 20L6 21L8 21L8 25L9 25L9 21L8 21L8 20L9 20L9 17L11 17L11 19L12 19L12 20L11 20L11 21L10 21L10 22L12 22L12 20L14 20L14 22L13 22L13 23L14 23L14 22L15 22L15 21L18 21L18 20L19 20L19 23L15 23L15 24L17 24L17 25L16 25L16 28L15 28L15 26L14 26L14 25L13 25L13 24L12 24L12 23L10 23L10 25L11 25L11 27L12 27L12 28L10 28L10 27L9 27L9 26L8 26L8 29L12 29L12 28L14 28L14 29L18 29L18 28L19 28L19 29L23 29L23 28L24 28L24 29L26 29L26 28L25 28L25 27L27 27L27 29L29 29L29 28L28 28L28 27L29 27L29 24L28 24L28 25L27 25L27 26L26 26L26 24L25 24L25 23L26 23L26 22L27 22L27 23L29 23L29 21L26 21L26 22L25 22L25 20L26 20L26 18L27 18L27 20L28 20L28 19L29 19L29 16L28 16L28 15L29 15L29 12L28 12L28 11L29 11L29 9L28 9L28 10L26 10L26 9L27 9L27 8L26 8L26 9L25 9L25 10L26 10L26 11L25 11L25 14L23 14L23 12L21 12L21 11L19 11L19 10L18 10L18 8L19 8L19 6L20 6L20 8L21 8L21 10L22 10L22 11L24 11L24 10L23 10L23 8L21 8L21 6L20 6L20 5L19 5L19 4L20 4L20 1L19 1L19 3L18 3L18 4L17 4L17 3L16 3L16 2L15 2L15 3L16 3L16 5L14 5L14 3L12 3L12 2L11 2L11 3L12 3L12 5L10 5L10 3L9 3L9 2L10 2L10 1L11 1L11 0ZM14 0L14 1L13 1L13 2L14 2L14 1L15 1L15 0ZM17 1L17 2L18 2L18 1ZM13 5L13 7L12 7L12 6L11 6L11 7L12 7L12 8L13 8L13 9L14 9L14 10L13 10L13 11L14 11L14 10L15 10L15 9L16 9L16 8L17 8L17 7L18 7L18 6L19 6L19 5L17 5L17 7L16 7L16 6L15 6L15 7L14 7L14 5ZM15 7L15 8L16 8L16 7ZM9 10L9 11L10 11L10 10ZM17 10L17 11L18 11L18 10ZM11 11L11 12L12 12L12 14L9 14L9 13L10 13L10 12L7 12L7 13L6 13L6 14L7 14L7 13L8 13L8 14L9 14L9 15L8 15L8 17L4 17L4 19L5 19L5 18L8 18L8 17L9 17L9 15L10 15L10 16L11 16L11 17L12 17L12 16L13 16L13 17L14 17L14 18L13 18L13 19L14 19L14 18L15 18L15 20L16 20L16 19L17 19L17 18L18 18L18 19L19 19L19 20L20 20L20 19L21 19L21 18L20 18L20 13L21 13L21 15L23 15L23 14L22 14L22 13L21 13L21 12L17 12L17 13L16 13L16 14L14 14L14 12L12 12L12 11ZM15 11L15 12L16 12L16 11ZM26 11L26 13L27 13L27 14L25 14L25 15L24 15L24 16L23 16L23 18L22 18L22 19L23 19L23 20L24 20L24 19L23 19L23 18L26 18L26 17L27 17L27 18L28 18L28 17L27 17L27 14L28 14L28 13L27 13L27 11ZM0 13L0 14L1 14L1 13ZM17 13L17 14L16 14L16 15L15 15L15 17L16 17L16 15L17 15L17 17L19 17L19 13ZM13 14L13 15L14 15L14 14ZM17 14L17 15L18 15L18 14ZM0 15L0 16L1 16L1 15ZM6 15L6 16L7 16L7 15ZM11 15L11 16L12 16L12 15ZM25 15L25 16L26 16L26 15ZM21 16L21 17L22 17L22 16ZM1 18L1 19L2 19L2 20L3 20L3 18ZM6 19L6 20L7 20L7 19ZM21 21L21 24L24 24L24 21ZM22 22L22 23L23 23L23 22ZM11 24L11 25L12 25L12 24ZM18 24L18 26L17 26L17 27L20 27L20 26L22 26L22 27L21 27L21 28L23 28L23 25L20 25L20 24ZM13 26L13 27L14 27L14 26ZM27 26L27 27L28 27L28 26ZM0 0L0 7L7 7L7 0ZM1 1L1 6L6 6L6 1ZM2 2L2 5L5 5L5 2ZM22 0L22 7L29 7L29 0ZM23 1L23 6L28 6L28 1ZM24 2L24 5L27 5L27 2ZM0 22L0 29L7 29L7 22ZM1 23L1 28L6 28L6 23ZM2 24L2 27L5 27L5 24Z" fill="#000000"/></g></g></svg>
